# xmcd CD database file generated by Grip 3.0.1
# 
# Track frame offsets:
#       150
#       18812
#       39575
#       59455
#       74285
#       92140
#       115877
#       134222
#       153872
#       175895
# 
# Disc length: 2557 seconds
# 
# Revision: 5
# Processed by: cddbd v1.4PL0 Copyright (c) Steve Scherf et al.
# Submitted via: Grip 3.0.1
# 
DISCID=8609fb0a
DTITLE=Susan Ashton - Angels of Mercy
DYEAR=1992
DGENRE=Gospel
TTITLE0=Here In My Heart
TTITLE1=Grand Canyon
TTITLE2=Better Angels Of Our Nature
TTITLE3=Hunger And Thirst
TTITLE4=Innocence Lost
TTITLE5=Started As A Whisper
TTITLE6=Alice In Wonderland
TTITLE7=When Are You Coming Back
TTITLE8=Walk On By
TTITLE9=Let Me Go
EXTD=1992, Sparrow\nProduced by Wayne Kirkpatrick for RBI Productions\nExec
EXTD=utive Producer: Brown Bannister ID3G: 38
EXTT0=
EXTT1=
EXTT2=
EXTT3=
EXTT4=
EXTT5=
EXTT6=
EXTT7=
EXTT8=
EXTT9=
PLAYORDER=
